<svg xmlns="http://www.w3.org/2000/svg" width="256" height="256" viewBox="0 0 100 100"><rect width="100" height="100" rx="20" fill="#7d6ee7"></rect><path fill="#fff" d="M47.66 28.67L47.66 28.67Q47.66 29.93 46.90 30.83Q46.13 31.73 45.14 32.18L45.14 32.18Q42.80 30.56 39.65 29.12Q36.50 27.68 31.46 27.68L31.46 27.68Q27.32 27.68 23.81 29.12Q20.30 30.56 17.69 33.35Q15.08 36.14 13.60 40.37Q12.11 44.60 12.11 50.09L12.11 50.09Q12.11 55.67 13.55 59.81Q14.99 63.95 17.56 66.74Q20.12 69.53 23.72 70.92Q27.32 72.32 31.73 72.32L31.73 72.32Q36.41 72.32 39.88 71.02Q43.34 69.71 45.68 67.91L45.68 67.91Q46.58 68.27 47.39 69.22Q48.20 70.16 48.20 71.42L48.20 71.42Q48.20 73.31 46.04 74.84L46.04 74.84Q43.97 76.28 40.37 77.41Q36.77 78.53 31.19 78.53L31.19 78.53Q25.52 78.53 20.66 76.73Q15.80 74.93 12.25 71.38Q8.69 67.82 6.62 62.51Q4.55 57.20 4.55 50.09L4.55 50.09Q4.55 42.98 6.67 37.63Q8.78 32.27 12.38 28.67Q15.98 25.07 20.80 23.27Q25.61 21.47 30.92 21.47L30.92 21.47Q34.61 21.47 37.72 22.10Q40.82 22.73 43.03 23.77Q45.23 24.80 46.45 26.11Q47.66 27.41 47.66 28.67ZM75.74 72.41L75.74 72.41Q81.77 72.41 84.88 69.67Q87.98 66.92 87.98 62.60L87.98 62.60Q87.98 58.82 85.59 56.48Q83.21 54.14 78.08 52.61L78.08 52.61L70.25 50.27Q64.49 48.56 61.20 45.23Q57.92 41.90 57.92 36.23L57.92 36.23Q57.92 32.81 59.23 30.06Q60.53 27.32 62.96 25.43Q65.39 23.54 68.77 22.51Q72.14 21.47 76.37 21.47L76.37 21.47Q79.97 21.47 83.08 22.05Q86.18 22.64 88.47 23.68Q90.77 24.71 92.03 25.97Q93.29 27.23 93.29 28.58L93.29 28.58Q93.29 29.84 92.66 30.74Q92.03 31.64 91.04 32.18L91.04 32.18Q88.70 30.38 84.97 29.03Q81.23 27.68 76.64 27.68L76.64 27.68Q71.33 27.68 68.31 29.93Q65.30 32.18 65.30 36.23L65.30 36.23Q65.30 39.38 67.46 41.36Q69.62 43.34 74.66 44.78L74.66 44.78L80.15 46.40Q87.26 48.47 91.35 52.20Q95.45 55.94 95.45 62.60L95.45 62.60Q95.45 69.71 90.32 74.12Q85.19 78.53 75.74 78.53L75.74 78.53Q71.60 78.53 68.22 77.81Q64.85 77.09 62.47 75.92Q60.08 74.75 58.77 73.36Q57.47 71.96 57.47 70.61L57.47 70.61Q57.47 69.08 58.41 68.05Q59.36 67.01 60.62 66.56L60.62 66.56Q61.61 67.55 63.05 68.58Q64.49 69.62 66.38 70.47Q68.27 71.33 70.61 71.87Q72.95 72.41 75.74 72.41Z"></path></svg>